<svg xmlns="http://www.w3.org/2000/svg" xml:space="preserve" width="1920" height="266" overflow="hidden"><path fill="#3F4960" fill-rule="evenodd" d="M336.764 3c9.504 0 17.683 1.42 24.537 4.27 6.854 2.85 12.017 6.61 15.49 11.3 3.473 4.68 5.209 9.59 5.209 14.74 0 6.24-1.873 11.25-5.62 15.01-3.747 3.77-8.728 5.65-14.942 5.65a53.57 53.57 0 0 1-7.676-.55l-3.29-.83V9.89l-2.467-.55c-.732-.19-1.554-.37-2.468-.55-.914-.19-2.01-.28-3.29-.28-6.214 0-10.966 3.26-14.256 9.78-3.29 6.52-4.935 18.42-4.935 35.68v13.78h43.865v6.89h-43.865v117.09l16.45 4.14V200h-76.764v-4.13l16.449-4.14V74.64H260v-6.89h19.191V53.97c0-9.73 2.33-18.46 6.991-26.17 4.661-7.72 11.332-13.78 20.014-18.19C314.877 5.2 325.067 3 336.764 3Z"></path><path fill="#80C8F8" fill-rule="evenodd" d="M686.349 3c9.743 0 19.121 3.03 28.131 9.09 3.86 2.57 7.35 5.5 10.47 8.81 3.13-4.78 6.35-8.54 9.66-11.29 3.31-2.39 5.14-3.67 5.51-3.86h6.9v52.32h-11.04c-2.38-8.26-5.79-16.25-10.2-23.96-4.41-7.16-9.33-12.98-14.75-17.48s-11.81-6.75-19.166-6.75c-5.699 0-10.571 2.25-14.615 6.75-4.045 4.5-6.067 10.51-6.067 18.03 0 6.06 1.654 12.12 4.964 18.18 3.309 6.05 7.353 12.39 12.133 19l49.081 68.83c1.66-3.12 3.22-6.52 4.69-10.19 3.31-8.44 4.97-16.98 4.97-25.6l-22.07-8.26v-4.13h51.02v4.13l-22.06 8.26c0 9.17-2.02 19.09-6.07 29.73-2.2 5.14-4.13 9.46-5.79 12.94l31.16 44.06 13.79 4.13v4.13h-38.61c-7.53 0-14.01-1.19-19.44-3.58-5.42-2.39-9.51-5.78-12.27-10.19-3.12 3.67-6.52 6.7-10.2 9.09-8.825 5.87-18.753 8.81-29.783 8.81C628.899 204 605 187.94 605 155.82c0-9.55 2.482-17.58 7.446-24.1 4.963-6.51 11.398-12.16 19.303-16.93 8.089-4.41 17.097-7.71 27.024-9.91l-15.167-22.03c-4.228-6.06-7.583-12.02-10.065-17.9-2.482-5.87-3.723-12.3-3.723-19.27 0-7.9 2.16-15.05 6.481-21.48 4.32-6.42 10.754-11.56 19.303-15.42C664.15 4.93 674.399 3 686.349 3Zm-23.44 107.38c-2.206 2.39-4.044 5.51-5.515 9.37-3.677 8.26-5.515 20.28-5.515 36.07 0 13.21 2.895 23.4 8.686 30.56s13.007 10.74 21.647 10.74c7.538 0 14.799-2.76 21.788-8.26 3.67-2.94 6.52-5.69 8.55-8.26l-49.641-70.22Z"></path><path fill="#3F4960" fill-rule="evenodd" d="M4 8h78.308v4.11l-16.486 4.12v176.91h59.075c0-11.52 2.931-22.21 8.793-32.09 2.564-4.2 5.587-7.68 9.067-10.42H151V200H4v-4.11l16.486-4.12V16.23L4 12.11V8Z"></path><path fill="#80C8F8" fill-rule="evenodd" d="M206 8c5.429 0 9.952 1.81 13.571 5.43C223.19 17.05 225 21.57 225 27s-1.81 9.95-5.429 13.57C215.952 44.19 211.429 46 206 46c-5.428 0-9.952-1.81-13.571-5.43C188.81 36.95 187 32.43 187 27s1.81-9.95 5.429-13.57C196.048 9.81 200.572 8 206 8Z"></path><path fill="#3F4960" fill-rule="evenodd" d="M447.186 58c13.163 0 24.726 2.48 34.689 7.44 9.964 4.96 17.642 11.61 23.035 19.97 5.394 8.36 8.09 17.58 8.09 27.68 0 4.6-.457 8.54-1.371 11.85l-1.371 4.68c-7.861 1.66-16.362 3.03-25.503 4.13a407.979 407.979 0 0 1-58.136 4.14c0 21.3 2.925 36.5 8.775 45.59 5.85 9.09 13.894 13.63 24.132 13.63 7.13 0 13.757-1.7 19.881-5.09 6.125-3.4 10.969-7.9 14.534-13.5 3.565-5.6 5.348-11.34 5.348-17.22h6.855c0 7.35-2.194 14.33-6.581 20.94-4.388 6.61-10.512 11.89-18.373 15.84-7.862 3.95-16.911 5.92-27.149 5.92-23.4 0-41.591-6.47-54.571-19.42C386.49 171.63 380 153.77 380 131c0-14.88 2.834-27.82 8.501-38.84 5.667-11.02 13.574-19.47 23.721-25.35 10.146-5.87 21.801-8.81 34.964-8.81Zm0 5.51c-13.712 0-20.567 22.5-20.567 67.49 11.7 0 21.207-.46 28.519-1.38 3.108-.18 6.399-.64 9.872-1.37.183-.92.64-2.94 1.371-6.07.915-4.59 1.372-9.45 1.372-14.6 0-15.24-2.011-26.39-6.033-33.46-4.022-7.08-8.867-10.61-14.534-10.61ZM170 63h35.75c16.5 0 24.75 8.22 24.75 24.66v104.12l16.5 4.11V200h-77v-4.11l16.5-4.11V71.22L170 67.11V63ZM879 3h76.88c30.39 0 52.17 5.01 65.35 15.03 13.18 10.01 19.77 24.76 19.77 44.25 0 19.48-6.59 34.23-19.77 44.25-13.18 10.02-34.96 15.03-65.35 15.03h-15.1v66.17l16.47 4.13V196H879v-4.14l16.47-4.13V11.27L879 7.14V3Zm61.78 6.89v104.77h15.1c11.53 0 20.82-4.41 27.87-13.23 7.05-8.82 10.57-21.87 10.57-39.15 0-17.1-3.52-30.1-10.57-39.01-7.05-8.92-16.34-13.38-27.87-13.38h-15.1Z"></path><path fill="#80C8F8" fill-rule="evenodd" d="M1556 3c5.43 0 9.95 1.86 13.57 5.57 3.62 3.72 5.43 8.36 5.43 13.93s-1.81 10.21-5.43 13.93c-3.62 3.71-8.14 5.57-13.57 5.57s-9.95-1.86-13.57-5.57c-3.62-3.72-5.43-8.36-5.43-13.93s1.81-10.21 5.43-13.93C1546.05 4.86 1550.57 3 1556 3Z"></path><path fill="#3F4960" fill-rule="evenodd" d="M1689.81 3h35.84c16.54 0 24.81 8.27 24.81 24.8v159.8l16.54 4.13v4.14h-24.81c-11.03 0-19.57-3.4-25.64-10.2-2.57-2.75-4.59-6.24-6.06-10.47a50.07 50.07 0 0 1-9.1 12.4c-8.27 8.27-18.56 12.4-30.88 12.4-10.84 0-20.49-2.8-28.94-8.4-8.46-5.61-15.16-13.87-20.13-24.8-4.96-10.93-7.44-24.2-7.44-39.81 0-23.52 5.47-41.56 16.4-54.14 10.94-12.59 25.69-18.88 44.25-18.88 8.82 0 16.54 1.84 23.16 5.51 2.75 1.29 5.6 3.13 8.54 5.51V11.27l-16.54-4.14V3Zm-4.13 59.24c-7.91 0-14.02 4.59-18.34 13.77-4.32 9.19-6.48 26.18-6.48 50.98 0 23.69 1.98 40.18 5.93 49.45 3.95 9.28 8.87 13.92 14.75 13.92 6.8 0 12.96-3.68 18.47-11.02 2.02-2.76 4.14-6.43 6.34-11.03V73.26a58.3 58.3 0 0 0-6.34-5.51c-4.96-3.68-9.74-5.51-14.33-5.51ZM1271 54c22.77 0 40.63 6.47 53.58 19.42C1337.53 86.37 1344 104.23 1344 127s-6.47 40.63-19.42 53.58C1311.63 193.53 1293.77 200 1271 200s-40.63-6.47-53.58-19.42C1204.47 167.63 1198 149.77 1198 127s6.47-40.63 19.42-53.58C1230.37 60.47 1248.23 54 1271 54Zm0 5.51c-7.35 0-13.54 5.14-18.59 15.43-5.05 10.28-7.58 27.63-7.58 52.06 0 24.43 2.53 41.78 7.58 52.06 5.05 10.29 11.24 15.43 18.59 15.43s13.54-5.14 18.59-15.43c5.05-10.28 7.58-27.63 7.58-52.06 0-24.43-2.53-41.78-7.58-52.06-5.05-10.29-11.24-15.43-18.59-15.43ZM1853.19 54c13.16 0 24.72 2.48 34.69 7.44 9.96 4.96 17.64 11.61 23.03 19.97 5.39 8.36 8.09 17.58 8.09 27.68 0 4.6-.46 8.54-1.37 11.85l-1.37 4.68c-7.86 1.66-16.36 3.03-25.51 4.13a407.843 407.843 0 0 1-58.13 4.14c0 21.3 2.92 36.5 8.77 45.59 5.85 9.09 13.9 13.63 24.14 13.63 7.13 0 13.75-1.7 19.88-5.09 6.12-3.4 10.97-7.9 14.53-13.5 3.57-5.6 5.35-11.34 5.35-17.22h6.85c0 7.35-2.19 14.33-6.58 20.94-4.38 6.61-10.51 11.89-18.37 15.84-7.86 3.95-16.91 5.92-27.15 5.92-23.4 0-41.59-6.47-54.57-19.42-12.98-12.95-19.47-30.81-19.47-53.58 0-14.88 2.83-27.82 8.5-38.84 5.67-11.02 13.58-19.47 23.72-25.34 10.15-5.88 21.8-8.82 34.97-8.82Zm0 5.51c-13.72 0-20.57 22.5-20.57 67.49 11.7 0 21.21-.46 28.52-1.38 3.11-.18 6.4-.64 9.87-1.37.18-.92.64-2.94 1.37-6.06.92-4.6 1.37-9.46 1.37-14.61 0-15.24-2.01-26.39-6.03-33.46-4.02-7.08-8.87-10.61-14.53-10.61ZM1157.97 57c9.67 0 16.93 2.25 21.77 6.74 4.84 4.5 7.26 10.97 7.26 19.41 0 6.24-1.87 11.24-5.61 15-3.75 3.76-8.72 5.64-14.93 5.64-2.56 0-5.12-.18-7.67-.55l-3.29-.82V63.88c-9.31 0-17.8 3.67-25.47 11.01-3.66 3.67-6.58 7.34-8.77 11.01v101.84l16.44 4.13V196H1061v-4.13l16.43-4.13V66.63L1061 62.5v-4.12h24.65c10.78 0 19.27 3.48 25.48 10.46 2.37 2.75 4.38 6.14 6.02 10.18 2.74-4.04 6.12-7.71 10.14-11.01 9.13-7.34 19.35-11.01 30.68-11.01ZM1351 58h34.38c9.53 0 17.09 1.98 22.68 5.94 5.59 3.97 10.41 9.82 14.44 17.56l32.73 63.86 30.52-74.92-20.62-8.29V58H1516v4.15l-22 8.29L1441.75 199h-8.25l-68.75-132.71-13.75-4.14V58Zm169 0h35.75c16.5 0 24.75 8.28 24.75 24.84v104.88l16.5 4.14V196h-77v-4.14l16.5-4.14V66.28l-16.5-4.14V58Z"></path><path fill="#80C8F8" d="M606 229h181v33H606z"></path></svg>